<svg version="1.0" xmlns="http://www.w3.org/2000/svg" xmlns:xlink="http://www.w3.org/1999/xlink" x="0px" y="0px" width="62px"
	 height="62px" viewBox="0 0 62 62" style="enable-background:new 0 0 62 62;" xml:space="preserve">
	<g>
		<path style="fill:#ffffff;" d="M31,61C14.5,61,1,47.5,1,31C1,14.5,14.5,1,31,1s30,13.5,30,30C61,47.5,47.5,61,31,61z M31,5.3
			C16.8,5.3,5.3,16.8,5.3,31S16.8,56.7,31,56.7S56.7,45.2,56.7,31S45.2,5.3,31,5.3z"/>
		<polygon style="fill:#ffffff;" points="41.1,18.2 31.2,28.1 21.3,18.2 18.3,21.2 28.2,31.1 18.3,41 21.3,44 31.2,34.1 41.1,44 
			44.1,41 34.2,31.1 44.1,21.2 		"/>
	</g>
</svg>
